<svg version="1.1" id="Layer_1" xmlns="http://www.w3.org/2000/svg" xmlns:xlink="http://www.w3.org/1999/xlink" x="0px" y="0px"
	 width="100%" viewBox="0 0 976 752" enable-background="new 0 0 976 752" xml:space="preserve">
<path fill="#FFF" opacity="1.000000" stroke="none" 
	d="
M473.000000,753.000000 
	C437.979095,753.000000 402.958221,753.000000 367.223022,752.753357 
	C365.765778,752.147766 365.052979,751.696045 364.275452,751.443298 
	C313.330444,734.881409 262.386322,718.316711 211.428680,701.793701 
	C159.993210,685.115662 108.562874,668.421204 57.080544,651.888855 
	C49.150272,649.342224 42.073448,645.574951 35.882999,640.094421 
	C23.272095,628.929626 15.609608,614.635742 10.584198,598.873840 
	C2.286964,572.850098 -0.048918,546.169189 2.511548,519.004822 
	C4.514644,497.753662 10.994094,478.370209 25.624184,462.282501 
	C26.288288,461.552216 27.005661,460.791412 26.432697,459.252625 
	C22.235903,457.010345 17.221937,456.544373 12.456281,455.296722 
	C8.091285,454.153961 3.612568,453.297516 1.000000,449.000000 
	C1.000000,448.555542 1.000000,448.111115 1.164103,447.041443 
	C6.118762,439.168243 13.846737,436.142944 21.276953,432.856049 
	C35.460007,426.582001 50.199226,421.812134 65.131683,417.694885 
	C69.273956,416.552795 71.616127,414.967834 72.128586,410.182098 
	C74.324554,389.674408 74.318275,369.304932 68.874100,349.280457 
	C64.160965,331.944885 54.954102,318.532166 36.474121,313.221771 
	C30.254923,311.434631 24.487837,308.072144 20.113180,303.018616 
	C13.819190,295.747894 16.555656,286.501526 25.682194,283.770905 
	C35.885906,280.717987 46.097481,277.690643 56.282612,274.576874 
	C58.452023,273.913635 60.854950,273.514709 62.196152,271.371735 
	C62.051907,269.453674 60.758709,268.310822 59.675987,267.071320 
	C53.598370,260.113403 48.738571,252.376465 45.036137,243.932068 
	C37.613018,227.001617 33.930000,209.177551 32.299759,190.832794 
	C30.158611,166.738953 30.386564,142.812683 39.752861,120.075981 
	C49.767342,95.765831 66.464226,78.940392 93.873016,75.387856 
	C98.813736,74.747475 103.745338,74.036003 108.678894,73.341286 
	C129.237442,70.446320 149.791138,67.516541 170.354202,64.654037 
	C193.058640,61.493446 215.773819,58.410137 238.479752,55.260296 
	C259.047668,52.407055 279.607758,49.497433 300.174377,46.634853 
	C323.048126,43.451149 345.926971,40.303844 368.800690,37.119957 
	C393.816437,33.637913 418.825531,30.107864 443.843781,26.643873 
	C466.562927,23.498207 489.295135,20.447014 512.012939,17.291901 
	C534.896484,14.113784 557.773254,10.885726 580.645691,7.628311 
	C595.771667,5.474122 610.990356,3.950657 626.000000,1.000000 
	C627.066711,1.000000 628.133362,1.000000 629.912170,1.179122 
	C631.884460,1.786617 633.132874,2.254257 634.406616,2.637798 
	C742.123413,35.074127 849.809937,67.612236 957.620850,99.732849 
	C966.437927,102.359772 971.334534,113.278397 962.432007,120.980484 
	C958.348389,124.513443 953.667297,126.981499 948.803528,129.226288 
	C944.427429,131.246002 939.622253,132.181503 935.502747,134.864197 
	C924.482727,142.040604 918.886963,152.868484 915.491882,164.979752 
	C909.837036,185.151917 909.953064,205.690063 911.980835,226.370148 
	C912.443848,231.092010 914.423645,232.797150 918.688965,233.983582 
	C927.981812,236.568481 937.179504,239.552612 946.277344,242.766327 
	C956.947754,246.535538 967.649780,250.337143 977.000000,257.000000 
	C977.000000,261.356903 977.000000,265.713806 976.575928,270.554993 
	C961.551392,273.874939 947.190552,277.624237 933.201172,281.359283 
	C932.845093,284.038818 934.061401,285.097839 934.902039,286.287048 
	C942.123779,296.503571 946.803467,307.829987 949.400146,320.007782 
	C955.193848,347.178955 953.496582,374.229462 947.599426,401.133942 
	C942.490540,424.442108 933.158752,445.430389 913.774719,460.677155 
	C913.476074,460.912079 913.497192,461.553497 913.315552,462.193573 
	C918.124268,464.793304 923.418213,465.694519 928.430664,467.341461 
	C937.957458,470.471710 940.551514,479.897888 933.631104,487.224091 
	C928.941833,492.188416 922.811646,494.855774 916.648499,497.464508 
	C912.839478,499.076782 908.746643,499.906677 905.237366,502.380157 
	C893.299438,510.794189 887.722351,523.042236 884.490601,536.613281 
	C880.199585,554.632019 880.966248,572.887512 881.876099,591.225708 
	C882.229126,598.340454 885.470886,600.447632 891.435913,601.922119 
	C898.851074,603.755066 906.101379,606.314514 913.330322,608.826660 
	C924.500244,612.708496 935.685974,616.640259 945.730713,623.054443 
	C949.046509,625.171814 953.033936,627.427063 952.294983,632.222900 
	C951.531494,637.178650 946.887329,637.544434 943.095398,638.468994 
	C891.559692,651.034790 840.017822,663.575256 788.464233,676.067566 
	C695.377014,698.624268 602.271301,721.104919 509.200226,743.727905 
	C497.099854,746.669189 484.828583,748.983704 473.000000,753.000000 
M65.539604,204.047653 
	C66.934662,211.070511 68.548660,218.041534 71.307320,224.672989 
	C77.151314,238.721085 86.023201,248.173813 101.948502,252.444290 
	C169.730942,270.620605 237.203384,289.953003 304.787689,308.867950 
	C348.828278,321.193665 392.874847,333.498077 436.891357,345.909149 
	C440.700317,346.983124 442.535278,346.472015 442.656219,342.089386 
	C443.615936,307.310852 444.575653,272.531494 445.814301,237.762299 
	C446.002838,232.469604 444.206879,230.082840 439.253204,228.474625 
	C327.224976,192.104584 215.239471,155.602921 103.249832,119.114075 
	C88.031403,114.155556 76.769257,118.919159 69.979256,133.355347 
	C65.511559,142.854080 63.857132,153.053024 63.455643,163.387253 
	C62.938881,176.688583 63.073330,190.007782 65.539604,204.047653 
M415.835876,605.810791 
	C416.374207,598.195557 416.376923,598.187195 409.096313,595.810059 
	C370.180695,583.103577 331.267761,570.388794 292.346039,557.700928 
	C218.932404,533.769287 145.514648,509.850250 72.095528,485.935455 
	C59.267262,481.756897 48.149220,486.054749 41.635384,497.907318 
	C39.884636,501.092987 38.340340,504.516510 37.430580,508.020203 
	C30.557690,534.489197 32.047829,560.867126 39.776806,586.815491 
	C44.906029,604.035645 55.132942,615.119324 74.175682,620.251221 
	C165.408218,644.837952 256.261749,670.830933 347.251099,696.320129 
	C367.115906,701.884888 386.983429,707.440247 406.854126,712.984009 
	C412.057831,714.435791 412.471222,714.043457 412.664734,708.604065 
	C412.907501,701.781738 413.390381,694.967285 413.585510,688.144165 
	C414.361603,661.010010 415.065979,633.873840 415.835876,605.810791 
M682.214050,491.553680 
	C732.024963,477.584991 781.834412,463.610992 831.647583,449.650543 
	C848.786682,444.847229 865.858215,439.770721 883.116455,435.440155 
	C890.271545,433.644745 896.689575,431.304291 901.835449,425.856323 
	C908.662781,418.628265 912.725098,409.928040 915.401123,400.555450 
	C921.620544,378.772430 922.051025,356.564606 919.288025,334.273773 
	C918.347839,326.688751 916.019348,319.316162 911.804871,312.728973 
	C905.104309,302.255890 894.172424,298.333496 882.399292,302.208313 
	C877.656799,303.769196 872.924988,305.362762 868.177795,306.909027 
	C760.259705,342.060547 652.347473,377.229797 544.395813,412.277863 
	C539.890320,413.740601 538.021240,415.777527 538.194092,420.750671 
	C539.414185,455.862488 540.408081,490.982635 541.320129,526.104126 
	C541.440979,530.759583 543.814331,530.336914 546.875488,529.477356 
	C591.721924,516.884521 636.569336,504.295105 682.214050,491.553680 
M489.849335,523.471008 
	C498.744202,525.598328 507.673828,527.593018 516.519287,529.908997 
	C520.956909,531.070862 521.947388,529.230286 521.497986,525.359680 
	C521.210022,522.879089 520.926514,520.388123 520.843872,517.895081 
	C519.778015,485.770782 518.670959,453.647400 517.799438,421.517670 
	C517.677612,417.028381 516.240662,415.092377 511.723846,414.222260 
	C493.123199,410.639069 474.597198,406.668579 456.041718,402.850647 
	C406.554565,392.668243 357.066803,382.488739 307.578400,372.312469 
	C256.460236,361.801117 205.339447,351.302216 154.222855,340.783173 
	C132.736191,336.361511 111.263931,331.869263 89.762871,327.519104 
	C87.942307,327.150757 85.665695,326.043610 84.106750,327.938354 
	C82.513084,329.875305 84.258873,331.738892 84.921074,333.513702 
	C90.563187,348.635620 92.982491,364.311523 93.390640,380.390198 
	C93.721054,393.406616 92.789497,406.347504 91.177124,419.226685 
	C90.690010,423.117645 91.805084,424.540924 95.417084,425.410248 
	C117.892677,430.819611 140.340164,436.347565 162.772858,441.933044 
	C271.539276,469.014496 380.298126,496.126587 489.849335,523.471008 
M621.390625,200.198273 
	C613.085205,201.893417 604.779846,203.588486 596.474426,205.283661 
	C555.110352,213.726334 513.756775,222.220825 472.367737,230.539474 
	C467.727173,231.472168 466.248962,233.586319 466.152069,238.283295 
	C465.719513,259.257294 465.263947,280.244843 464.058624,301.183838 
	C463.292511,314.492706 464.081451,327.842377 462.537231,341.113678 
	C461.854340,346.982544 462.650574,347.567749 468.464447,346.123077 
	C515.429504,334.452911 562.395508,322.786133 609.355896,311.097229 
	C675.340332,294.673035 741.320129,278.230652 807.301941,261.796173 
	C834.079285,255.126556 860.836731,248.374542 887.656372,241.879501 
	C891.568726,240.932022 893.447327,239.746017 892.766418,235.312210 
	C891.860291,229.411224 891.462036,223.417847 891.110962,217.448547 
	C889.742554,194.178619 890.853943,171.202911 899.659058,149.196060 
	C900.317078,147.551437 901.474304,145.945114 900.501038,143.977295 
	C898.947571,142.913605 897.314087,143.402512 895.700989,143.734329 
	C854.190369,152.273392 812.680481,160.816162 771.170715,169.359467 
	C721.521179,179.578003 671.871887,189.797638 621.390625,200.198273 
M708.883484,646.171082 
	C736.795227,639.233948 764.710876,632.312500 792.617432,625.354553 
	C814.717590,619.844238 836.804016,614.279236 858.903748,608.767212 
	C861.485779,608.123230 863.668213,607.500793 863.242310,603.952454 
	C862.450256,597.352905 861.878479,590.723450 861.359253,584.095154 
	C859.492065,560.259888 861.260559,536.895935 870.477783,514.498047 
	C870.994690,513.241943 872.246765,511.976166 871.235168,510.207153 
	C869.778809,510.337524 868.272705,510.325958 866.830078,510.622772 
	C825.807373,519.063171 784.794739,527.553040 743.772339,535.995178 
	C710.398010,542.863464 676.964539,549.454163 643.650818,556.604126 
	C623.190369,560.995422 602.368042,563.826721 582.400146,570.430481 
	C570.551208,574.349182 558.640198,578.080872 546.802612,582.032959 
	C543.527283,583.126465 540.464600,583.317749 537.064209,582.452087 
	C533.423889,581.525330 529.836853,579.899292 525.856506,580.726746 
	C497.703735,586.579163 469.551666,592.436096 441.369202,598.142517 
	C438.069000,598.810730 436.418488,599.995544 436.317444,603.583740 
	C435.314148,639.206360 434.194122,674.825684 433.131012,710.446594 
	C433.093323,711.709167 432.615784,713.159119 434.289062,714.237488 
	C435.548248,714.012573 437.020813,713.837463 438.448425,713.481812 
	C484.600006,701.984314 530.741150,690.444946 576.896790,678.964050 
	C620.621948,668.087708 664.361572,657.269714 708.883484,646.171082 
z"/>
</svg>